<svg width="40" height="40" viewBox="0 0 40 40" fill="none" xmlns="http://www.w3.org/2000/svg">
<path d="M0 20C0 8.95431 8.95431 0 20 0C31.0457 0 40 8.95431 40 20C40 31.0457 31.0457 40 20 40C8.95431 40 0 31.0457 0 20Z" fill="white"/>
<path opacity="0.3" d="M13 26.08V27H13.92L22.98 17.94L22.06 17.02L13 26.08Z" fill="#1F1F1F"/>
<path d="M28.71 15.04C29.1 14.65 29.1 14.02 28.71 13.63L26.37 11.29C26.17 11.09 25.92 11 25.66 11C25.4 11 25.15 11.1 24.96 11.29L23.13 13.12L26.88 16.87L28.71 15.04ZM11 25.25V29H14.75L25.81 17.94L22.06 14.19L11 25.25ZM13.92 27H13V26.08L22.06 17.02L22.98 17.94L13.92 27Z" fill="#1F1F1F"/>
</svg>
