<svg width="24" height="24" viewBox="0 0 24 24" fill="none" xmlns="http://www.w3.org/2000/svg">
<path d="M12 24C18.6274 24 24 18.6274 24 12C24 5.37258 18.6274 0 12 0C5.37258 0 0 5.37258 0 12C0 18.6274 5.37258 24 12 24Z" fill="url(#paint0_linear_553_121406)"/>
<path d="M20.5908 12.1462H18.4753C18.4753 7.83511 14.9683 4.34045 10.6418 4.34045C6.36892 4.34045 2.895 7.74956 2.80998 11.9868C2.72202 16.3668 6.84587 20.1703 11.242 20.1703H11.795C15.6707 20.1703 20.8654 17.147 21.677 13.4635C21.8269 12.7845 21.2886 12.1462 20.5908 12.1462ZM7.49815 12.3383C7.49815 12.9148 7.02494 13.3863 6.44638 13.3863C5.86781 13.3863 5.39463 12.9146 5.39463 12.3383V10.6428C5.39463 10.0663 5.86781 9.59481 6.44638 9.59481C7.02494 9.59481 7.49815 10.0663 7.49815 10.6428V12.3383ZM11.1502 12.3383C11.1502 12.9148 10.6771 13.3863 10.0986 13.3863C9.51994 13.3863 9.04679 12.9146 9.04679 12.3383V10.6428C9.04679 10.0663 9.52015 9.59481 10.0986 9.59481C10.6771 9.59481 11.1502 10.0663 11.1502 10.6428V12.3383Z" fill="white"/>
<defs>
<linearGradient id="paint0_linear_553_121406" x1="12" y1="0" x2="12" y2="24" gradientUnits="userSpaceOnUse">
<stop stop-color="#534BB1"/>
<stop offset="1" stop-color="#551BF9"/>
</linearGradient>
</defs>
</svg>
