<svg width="24" height="24" viewBox="0 0 24 24" fill="none" xmlns="http://www.w3.org/2000/svg">
<rect width="24" height="24" rx="12" fill="white"/>
<path d="M7.00016 10.3334C6.0835 10.3334 5.3335 11.0834 5.3335 12C5.3335 12.9167 6.0835 13.6667 7.00016 13.6667C7.91683 13.6667 8.66683 12.9167 8.66683 12C8.66683 11.0834 7.91683 10.3334 7.00016 10.3334ZM17.0002 10.3334C16.0835 10.3334 15.3335 11.0834 15.3335 12C15.3335 12.9167 16.0835 13.6667 17.0002 13.6667C17.9168 13.6667 18.6668 12.9167 18.6668 12C18.6668 11.0834 17.9168 10.3334 17.0002 10.3334ZM12.0002 10.3334C11.0835 10.3334 10.3335 11.0834 10.3335 12C10.3335 12.9167 11.0835 13.6667 12.0002 13.6667C12.9168 13.6667 13.6668 12.9167 13.6668 12C13.6668 11.0834 12.9168 10.3334 12.0002 10.3334Z" fill="#383838"/>
</svg>
