<svg width="24" height="24" viewBox="0 0 24 24" fill="none" xmlns="http://www.w3.org/2000/svg">
<path d="M12.3565 22.4411C12.5995 22.4411 12.7965 22.632 12.7965 22.8676C12.7965 23.1032 12.5995 23.2942 12.3565 23.2942C12.1135 23.2942 11.9165 23.1032 11.9165 22.8676C11.9165 22.632 12.1135 22.4411 12.3565 22.4411ZM11.8785 2.06454C12.0935 2.08194 12.2672 2.24165 12.2963 2.4487L12.8196 6.17587C12.9954 7.40724 14.5107 7.9408 15.446 7.10402L20.6897 2.42605C20.8162 2.31321 21.0132 2.32103 21.1298 2.44352C21.2366 2.5559 21.2399 2.72795 21.1372 2.844L16.5646 8.01384C15.7228 8.96389 16.3439 10.4474 17.6272 10.5533L21.6618 10.9346C21.8627 10.9535 22.0097 11.1266 21.9901 11.3213C21.9739 11.4817 21.8478 11.6114 21.6833 11.6365L17.4438 12.2853C16.2129 12.4498 15.6555 13.8785 16.4561 14.8066L17.9465 16.5288C18.0666 16.6675 18.0478 16.8742 17.9045 16.9905C17.7831 17.089 17.6074 17.0928 17.4815 16.9997L15.6443 15.6397C14.6528 14.9089 13.2237 15.5301 13.1189 16.7395L12.714 21.4565C12.6973 21.6514 12.5207 21.7962 12.3195 21.78C12.1487 21.7662 12.0107 21.6395 11.9875 21.4751L11.3455 16.9186C11.1735 15.6872 9.65823 15.1537 8.71914 15.9905L3.14083 20.969C3.02537 21.072 2.84549 21.0649 2.73908 20.9531C2.64144 20.8505 2.63847 20.6934 2.73217 20.5874L7.60056 15.0807C8.44235 14.1306 7.825 12.647 6.54173 12.5412L2.50623 12.1599C2.30529 12.1409 2.15829 11.9677 2.1779 11.7732C2.19406 11.6127 2.32017 11.4831 2.48463 11.4579L6.72132 10.8092C7.95224 10.6447 8.5134 9.21604 7.7128 8.28789L6.69822 7.11559C6.54932 6.94356 6.57265 6.68719 6.75034 6.54302C6.90091 6.4208 7.11891 6.41613 7.27494 6.53172L8.52085 7.45479C9.51233 8.18559 10.9414 7.56444 11.0462 6.35498L11.3814 2.47164C11.4025 2.2263 11.6251 2.04403 11.8785 2.06454ZM1.14608 11.3372C1.38909 11.3372 1.5861 11.5282 1.5861 11.7638C1.5861 11.9994 1.38909 12.1904 1.14608 12.1904C0.903059 12.1904 0.706055 11.9994 0.706055 11.7638C0.706055 11.5282 0.903059 11.3372 1.14608 11.3372ZM23.2149 10.9041C23.4579 10.9041 23.6549 11.0951 23.6549 11.3307C23.6549 11.5663 23.4579 11.7572 23.2149 11.7572C22.9719 11.7572 22.7748 11.5663 22.7748 11.3307C22.7748 11.0951 22.9719 10.9041 23.2149 10.9041ZM11.8149 0.705933C12.0579 0.705933 12.2549 0.896912 12.2549 1.1325C12.2549 1.36808 12.0579 1.55906 11.8149 1.55906C11.5719 1.55906 11.3749 1.36808 11.3749 1.1325C11.3749 0.896912 11.5719 0.705933 11.8149 0.705933Z" fill="url(#paint0_linear_553_121407)"/>
<path d="M12.0789 15.5766C14.3745 15.5766 16.2354 13.7726 16.2354 11.5472C16.2354 9.32185 14.3745 7.51782 12.0789 7.51782C9.78332 7.51782 7.92236 9.32185 7.92236 11.5472C7.92236 13.7726 9.78332 15.5766 12.0789 15.5766Z" fill="url(#paint1_radial_553_121407)"/>
<defs>
<linearGradient id="paint0_linear_553_121407" x1="3.70459" y1="4.29893" x2="16.6264" y2="16.2338" gradientUnits="userSpaceOnUse">
<stop stop-color="#FFC10B"/>
<stop offset="1" stop-color="#FB3F2E"/>
</linearGradient>
<radialGradient id="paint1_radial_553_121407" cx="0" cy="0" r="1" gradientUnits="userSpaceOnUse" gradientTransform="translate(11.1297 10.0596) rotate(67.1106) scale(5.94071 6.08359)">
<stop stop-color="#FFC10B"/>
<stop offset="1" stop-color="#FB3F2E"/>
</radialGradient>
</defs>
</svg>
