<svg width="20" height="15" viewBox="0 0 20 15" fill="none" xmlns="http://www.w3.org/2000/svg">
<path fill-rule="evenodd" clip-rule="evenodd" d="M9.99998 0.698218C6.01866 0.698218 3.22579 2.40662 3.22579 2.40662C4.75592 1.0399 7.42995 0.252547 7.42995 0.252547L7.1774 0C4.66679 0.0445671 2.39387 1.78268 2.39387 1.78268C-0.161311 7.11588 0.00210148 11.7211 0.00210148 11.7211C2.0819 14.41 5.17188 14.2169 5.17188 14.2169L6.22664 12.8799C4.36968 12.4788 3.19608 10.8298 3.19608 10.8298C3.19608 10.8298 5.98895 12.7313 9.99998 12.7313C14.011 12.7313 16.8039 10.8298 16.8039 10.8298C16.8039 10.8298 15.6303 12.4788 13.7733 12.8799L14.8281 14.2169C14.8281 14.2169 17.9181 14.41 19.9979 11.7211C19.9979 11.7211 20.1613 7.11588 17.6061 1.78268C17.6061 1.78268 15.3332 0.0445671 12.8226 0L12.57 0.252547C12.57 0.252547 15.244 1.0399 16.7742 2.40662C16.7742 2.40662 13.9813 0.698218 9.99998 0.698218ZM6.92492 6.32854C7.89054 6.32854 8.67789 7.17531 8.66304 8.21521C8.66304 9.24026 7.89054 10.1019 6.92492 10.1019C5.97415 10.1019 5.20166 9.24026 5.20166 8.21521C5.20166 7.17531 5.9593 6.32854 6.92492 6.32854ZM13.1197 6.32854C14.0854 6.32854 14.8579 7.17531 14.8579 8.21521C14.8579 9.24026 14.0854 10.1019 13.1197 10.1019C12.169 10.1019 11.3965 9.24026 11.3965 8.21521C11.3965 7.17531 12.1541 6.32854 13.1197 6.32854Z" fill="white" fill-opacity="0.6"/>
</svg>
