<svg width="24" height="24" viewBox="0 0 24 24" fill="none" xmlns="http://www.w3.org/2000/svg">
<path d="M23.0834 8.50004L20.4584 3.83337H16.5967L14.6251 0.333374H9.37508L7.40342 3.83337H3.54175L0.916748 8.50004L2.88841 12L0.916748 15.5L3.54175 20.1667H7.40342L9.37508 23.6667H14.6251L16.5967 20.1667H20.4584L23.0834 15.5L21.1117 12L23.0834 8.50004ZM7.40342 17.8334H4.90675L3.60008 15.5L4.90675 13.1667H7.40342L8.71008 15.5L7.40342 17.8334ZM7.40342 10.8334H4.90675L3.58841 8.50004L4.89508 6.16671H7.39175L8.69841 8.50004L7.40342 10.8334ZM13.2601 21.3334H10.7401L9.43341 19.0234L10.7634 16.6667H13.2367L14.5551 19.0234L13.2601 21.3334ZM9.44508 12L10.7517 9.66671H13.2251L14.5317 12L13.2251 14.3334H10.7517L9.44508 12ZM13.2367 7.33337H10.7634L9.43341 4.97671L10.7401 2.66671H13.2601L14.5667 4.97671L13.2367 7.33337ZM19.0934 17.8334H16.5967L15.2901 15.5L16.5967 13.1667H19.0934L20.4001 15.5L19.0934 17.8334ZM19.0934 10.8334H16.5967L15.2901 8.50004L16.5967 6.16671H19.0934L20.4001 8.50004L19.0934 10.8334Z" fill="white"/>
</svg>
